<?xml version="1.0" encoding="utf-8"?>
<!-- Generator: Adobe Illustrator 24.2.0, SVG Export Plug-In . SVG Version: 6.00 Build 0)  -->
<svg version="1.1" id="Capa_1" focusable="false" xmlns="http://www.w3.org/2000/svg" xmlns:xlink="http://www.w3.org/1999/xlink"
	 x="0px" y="0px" viewBox="0 0 80 91.9" style="enable-background:new 0 0 80 91.9;" xml:space="preserve">
<path d="M39.6,45.2c11.9,0,21.5-9.6,21.5-21.5S51.4,2.2,39.6,2.2s-21.5,9.6-21.5,21.5S27.7,45.2,39.6,45.2z M54.6,50.5h-2.8
	c-3.7,1.7-7.9,2.7-12.2,2.7s-8.5-1-12.2-2.7h-2.8C12.1,50.5,2,60.6,2,73.1v7c0,4.4,3.6,8.1,8.1,8.1h59c4.4,0,8.1-3.6,8.1-8.1v-7
	C77.2,60.6,67.1,50.5,54.6,50.5z"/>
</svg>
